<!DOCTYPE svg PUBLIC "-//W3C//DTD SVG 1.1//EN" "http://www.w3.org/Graphics/SVG/1.1/DTD/svg11.dtd"[]><svg xmlns="http://www.w3.org/2000/svg" xmlns:xlink="http://www.w3.org/1999/xlink" version="1.1" width="21" height="21" viewBox="0 0 1080 1080" xml:space="preserve"><desc>Created with Fabric.js 5.2.4</desc><defs></defs><rect x="0" y="0" width="100%" height="100%" fill="transparent"></rect><g transform="matrix(1 0 0 1 540 540)" id="f442919f-9310-457d-8731-d0ed9b34b34d"><rect style="stroke: none; stroke-width: 1; stroke-dasharray: none; stroke-linecap: butt; stroke-dashoffset: 0; stroke-linejoin: miter; stroke-miterlimit: 4; fill: rgb(255,255,255); fill-rule: nonzero; opacity: 1; visibility: hidden;" vector-effect="non-scaling-stroke" x="-540" y="-540" rx="0" ry="0" width="1080" height="1080" /></g><g transform="matrix(1 0 0 1 540 540)" id="30f5416e-65e2-4b87-8f80-4aef37ebef02"></g><g transform="matrix(15.25 0 0 15.25 540 540)" id="7c7bb764-3a82-40e0-9c22-256bb9faac1d"><circle style="stroke: rgb(0,0,0); stroke-width: 0; stroke-dasharray: none; stroke-linecap: butt; stroke-dashoffset: 0; stroke-linejoin: miter; stroke-miterlimit: 4; fill: rgb(255,255,255); fill-rule: nonzero; opacity: 1;" vector-effect="non-scaling-stroke" cx="0" cy="0" r="35" /></g><g transform="matrix(0.7 0 0 0.7 540 540)"><g style="" vector-effect="non-scaling-stroke">		<g transform="matrix(0.13 0 0 -0.13 0 0)"><path style="stroke: none; stroke-width: 1; stroke-dasharray: none; stroke-linecap: butt; stroke-dashoffset: 0; stroke-linejoin: miter; stroke-miterlimit: 4; fill: rgb(0,0,0); fill-rule: nonzero; opacity: 1;" vector-effect="non-scaling-stroke" transform=" translate(-5887.5, -5803.54)" d="M 5765 10184 C 5638 10152 5283 10057 4980 9973 C 4257 9773 3633 9549 2921 9232 L 2788 9173 L 2789 9049 C 2790 8981 2792 8900 2795 8870 C 2798 8840 2802 8763 2805 8700 C 2808 8637 2815 8549 2820 8505 C 2825 8461 2837 8360 2845 8280 C 2883 7930 2948 7623 3076 7204 C 3182 6853 3443 6282 3646 5957 C 3730 5824 3899 5581 3980 5479 C 4099 5330 4307 5106 4403 5023 C 4459 4975 4559 4887 4626 4829 C 4692 4771 4816 4672 4901 4609 C 5083 4475 5087 4480 4815 4504 C 4716 4512 4586 4522 4525 4525 C 3979 4555 3019 4652 2575 4721 C 2471 4737 2327 4760 2255 4771 C 2184 4782 2112 4794 2095 4799 L 2065 4807 L 2068 4221 C 2070 3899 2074 3633 2076 3631 C 2078 3628 2176 3616 2293 3604 C 2409 3592 2524 3579 2548 3575 L 2590 3568 L 2591 3192 C 2591 2849 2601 2547 2615 2430 C 2621 2387 2619 2384 2582 2359 C 2532 2325 2522 2286 2510 2086 C 2504 2003 2498 1918 2496 1896 C 2492 1859 2493 1858 2518 1863 C 2533 1865 2658 1890 2795 1918 C 3113 1983 3298 2018 3635 2075 C 3844 2111 4170 2160 4196 2160 C 4198 2160 4200 1992 4200 1787 L 4200 1415 L 5853 1414 C 6761 1414 7520 1410 7538 1406 L 7570 1398 L 7570 1779 C 7569 1989 7570 2161 7572 2161 C 7579 2165 7708 2147 7865 2120 C 7959 2104 8098 2081 8175 2070 C 8324 2047 8705 1972 8830 1940 C 8871 1930 8957 1910 9020 1896 C 9083 1882 9154 1864 9178 1856 L 9220 1841 L 9220 2033 C 9220 2139 9216 2242 9211 2262 C 9206 2282 9186 2319 9165 2344 L 9128 2390 L 9144 2452 C 9157 2505 9160 2599 9162 3037 C 9164 3324 9168 3561 9171 3564 C 9184 3578 9489 3610 9617 3611 L 9697 3612 L 9703 3738 C 9707 3808 9710 4075 9710 4333 C 9710 4700 9707 4800 9698 4800 C 9686 4800 9399 4758 9188 4725 C 8952 4689 8327 4619 8020 4595 C 7913 4587 7762 4573 7685 4565 C 7559 4552 7230 4526 6875 4501 C 6804 4496 6741 4496 6737 4500 C 6733 4503 6758 4526 6792 4550 C 6993 4689 7344 4986 7526 5171 C 7917 5569 8235 6047 8505 6645 C 8627 6914 8695 7102 8799 7460 C 8872 7713 8943 8082 8965 8332 C 8998 8696 9002 8765 9003 8969 L 9005 9182 L 8910 9225 C 8858 9248 8743 9300 8655 9340 C 8268 9514 7895 9662 7639 9741 C 7553 9768 7476 9792 7468 9795 C 7457 9799 7440 9772 7402 9691 C 7373 9630 7350 9576 7350 9570 C 7350 9548 7368 9561 7373 9588 C 7376 9603 7385 9623 7392 9633 C 7405 9651 7408 9651 7460 9630 C 7490 9618 7592 9582 7685 9550 C 7868 9487 8332 9303 8600 9186 C 8691 9146 8781 9107 8800 9100 C 8819 9093 8839 9083 8843 9079 C 8851 9073 8839 8739 8824 8535 C 8804 8260 8735 7855 8704 7829 C 8696 7822 8690 7821 8692 7826 C 8694 7831 8690 7836 8685 7838 C 8679 7839 8675 7836 8675 7831 C 8675 7826 8671 7818 8667 7813 C 8662 7809 8659 7810 8660 7815 C 8661 7821 8662 7832 8660 7840 C 8659 7851 8656 7849 8650 7835 C 8642 7817 8641 7817 8641 7833 C 8639 7876 8610 7819 8590 7737 C 8579 7690 8548 7592 8522 7518 C 8495 7445 8462 7354 8450 7315 C 8387 7121 8194 6686 8087 6492 C 8008 6351 7929 6217 7891 6161 C 7870 6130 7846 6091 7837 6073 C 7824 6049 7814 6042 7792 6042 C 7756 6043 7707 6017 7681 5984 C 7665 5964 7660 5943 7660 5902 C 7660 5847 7658 5844 7573 5731 C 7314 5389 6834 4987 6363 4717 C 6162 4602 5896 4476 5868 4483 C 5855 4487 5811 4509 5770 4534 C 5729 4558 5657 4599 5610 4625 C 5141 4887 4870 5079 4565 5367 C 4358 5563 4285 5641 4191 5770 C 4141 5838 4130 5860 4135 5880 C 4154 5958 4154 5959 4112 5999 C 4088 6023 4055 6041 4028 6048 C 3986 6059 3979 6066 3923 6152 C 3831 6294 3648 6605 3600 6700 C 3493 6913 3350 7243 3300 7390 C 3257 7518 3222 7603 3221 7580 C 3220 7572 3225 7549 3231 7530 C 3236 7511 3243 7487 3245 7478 C 3249 7460 3275 7398 3292 7366 C 3298 7354 3298 7350 3292 7354 C 3280 7361 3282 7334 3295 7323 C 3299 7318 3300 7322 3295 7330 C 3290 7338 3291 7342 3296 7337 C 3307 7327 3310 7279 3298 7286 C 3294 7289 3293 7297 3297 7303 C 3301 7310 3298 7310 3288 7302 C 3279 7294 3273 7283 3276 7275 C 3279 7268 3276 7259 3269 7254 C 3261 7249 3259 7251 3265 7260 C 3270 7269 3269 7271 3262 7266 C 3255 7262 3250 7252 3250 7244 C 3250 7236 3254 7231 3259 7234 C 3263 7237 3265 7227 3262 7212 C 3258 7190 3250 7204 3223 7285 C 3142 7526 3035 8023 3001 8315 C 2975 8538 2950 8881 2950 9003 L 2950 9075 L 3078 9129 C 3454 9287 3595 9343 3900 9455 C 4368 9627 4757 9746 5400 9915 C 5518 9946 5676 9987 5750 10007 L 5885 10044 L 6090 9992 C 6203 9964 6324 9936 6360 9930 C 6440 9916 6595 9873 6633 9853 C 6649 9845 6664 9841 6667 9844 C 6670 9847 6668 9890 6664 9941 L 6655 10032 L 6616 10036 C 6594 10038 6531 10053 6476 10069 C 6273 10129 5916 10212 5876 10209 C 5870 10209 5820 10197 5765 10184 z M 3316 7258 C 3320 7251 3320 7248 3315 7252 C 3311 7256 3300 7254 3291 7247 C 3277 7236 3277 7237 3289 7253 C 3305 7273 3307 7274 3316 7258 z M 2296 4600 C 2448 4547 3311 4428 3683 4408 C 3709 4406 3730 4402 3730 4398 C 3730 4393 3730 4230 3730 4034 L 3730 3678 L 3653 3750 C 3535 3860 3423 3946 3382 3958 C 3362 3964 3318 3972 3286 3976 L 3227 3983 L 3233 3196 C 3239 2417 3240 2410 3261 2368 C 3273 2344 3298 2301 3317 2271 C 3336 2242 3350 2216 3347 2214 C 3345 2212 3256 2194 3149 2175 C 2973 2142 2731 2091 2671 2074 C 2650 2068 2648 2069 2655 2090 C 2659 2103 2689 2168 2723 2234 L 2783 2355 L 2781 2956 C 2780 3287 2777 3662 2775 3791 L 2770 4025 L 2658 4037 L 2545 4050 L 2525 4022 C 2499 3985 2264 3750 2253 3750 C 2249 3750 2245 3922 2245 4132 C 2245 4343 2241 4539 2237 4568 C 2232 4596 2230 4620 2232 4620 C 2235 4620 2263 4611 2296 4600 z M 9536 4574 C 9533 4548 9530 4350 9530 4134 C 9530 3861 9527 3740 9519 3740 C 9504 3740 9297 3944 9264 3992 L 9235 4033 L 9121 4026 C 9057 4022 9004 4017 9001 4014 C 8997 4011 8976 2541 8977 2360 C 8977 2329 8991 2283 9024 2210 C 9065 2116 9080 2060 9064 2060 C 9061 2060 9015 2073 8962 2090 C 8836 2128 8585 2187 8484 2201 C 8441 2207 8404 2213 8403 2214 C 8401 2215 8420 2243 8443 2276 C 8467 2308 8500 2355 8516 2379 L 8545 2423 L 8546 3194 C 8547 3618 8547 3968 8545 3971 C 8539 3979 8392 3961 8332 3944 C 8286 3931 8260 3912 8149 3809 C 8078 3744 8018 3690 8017 3690 C 8015 3690 8017 3716 8021 3748 C 8025 3779 8029 3940 8029 4106 L 8030 4407 L 8128 4413 C 8515 4439 9312 4553 9495 4609 C 9542 4624 9543 4623 9536 4574 z M 7960 4399 C 7960 4393 7946 4356 7928 4317 L 7897 4245 L 7899 3410 L 7902 2576 L 7925 2519 C 7938 2488 7972 2426 7999 2380 C 8053 2291 8059 2274 8034 2284 C 8007 2294 7765 2337 7635 2355 C 7569 2364 7512 2375 7509 2378 C 7505 2382 7448 2507 7380 2655 C 7313 2804 7224 2995 7183 3080 C 7141 3165 7090 3276 7068 3325 C 7046 3375 7026 3417 7023 3420 C 7020 3423 7020 3389 7024 3345 C 7027 3301 7031 3130 7031 2965 C 7033 2627 7033 2622 7105 2500 C 7131 2455 7151 2417 7149 2415 C 7146 2413 7113 2415 7075 2420 C 7036 2425 6902 2436 6775 2445 C 6649 2454 6539 2463 6532 2465 C 6524 2468 6531 2487 6556 2526 C 6576 2557 6603 2607 6616 2637 L 6640 2692 L 6636 3431 L 6631 4171 L 6586 4254 C 6561 4300 6540 4340 6540 4342 C 6540 4344 6575 4342 6618 4337 C 6667 4331 6750 4332 6849 4339 C 6934 4345 7004 4349 7006 4348 C 7012 4342 7198 3964 7260 3830 C 7298 3750 7362 3615 7404 3530 L 7479 3375 L 7477 3805 L 7475 4235 L 7438 4296 C 7417 4330 7400 4360 7400 4364 C 7400 4367 7442 4370 7493 4371 C 7543 4371 7657 4379 7745 4389 C 7943 4412 7960 4413 7960 4399 z M 4214 4369 C 4308 4358 4461 4347 4553 4343 C 4712 4337 4722 4336 4730 4316 C 4734 4304 4768 4165 4804 4005 C 4872 3709 4888 3640 4984 3235 C 5014 3109 5055 2926 5076 2830 C 5106 2685 5120 2639 5158 2563 C 5184 2512 5202 2469 5200 2467 C 5197 2464 5119 2457 5025 2450 C 4932 2444 4801 2433 4735 2426 C 4669 2419 4613 2415 4610 2417 C 4607 2420 4626 2463 4653 2513 C 4679 2564 4700 2615 4700 2627 C 4700 2653 4661 2761 4646 2776 C 4632 2790 4290 2763 4273 2746 C 4267 2740 4252 2699 4241 2656 C 4219 2567 4218 2572 4285 2450 L 4321 2385 L 4258 2377 C 4123 2360 3736 2296 3698 2284 C 3667 2275 3677 2310 3736 2415 C 3767 2470 3796 2526 3801 2538 C 3806 2551 3828 2675 3850 2813 C 3872 2952 3928 3254 3975 3485 C 4022 3716 4069 3966 4080 4040 C 4091 4114 4103 4183 4106 4192 C 4112 4214 4082 4273 4031 4338 C 4008 4366 3990 4392 3990 4396 C 3990 4399 4002 4399 4017 4395 C 4032 4392 4121 4380 4214 4369 z M 5316 4324 C 5337 4310 5371 4283 5390 4265 C 5441 4218 5502 4179 5616 4122 C 5672 4094 5725 4064 5734 4054 C 5749 4039 5751 3981 5749 3361 L 5748 2685 L 5782 2682 C 5800 2680 5843 2681 5878 2685 L 5940 2692 L 5935 2938 C 5932 3074 5928 3373 5925 3602 L 5920 4018 L 5972 4029 C 6000 4035 6042 4049 6064 4059 C 6138 4091 6284 4187 6347 4244 C 6380 4275 6411 4300 6414 4300 C 6428 4300 6417 4266 6380 4195 L 6339 4118 L 6342 3410 L 6345 2701 L 6398 2598 C 6427 2541 6450 2489 6450 2482 C 6450 2471 6376 2470 6033 2475 C 5751 2480 5559 2479 5442 2471 C 5347 2464 5265 2462 5260 2465 C 5246 2474 5272 2549 5315 2621 L 5352 2685 L 5351 3413 C 5350 3848 5345 4152 5339 4167 C 5334 4181 5312 4222 5290 4259 C 5268 4296 5250 4332 5250 4338 C 5250 4357 5274 4352 5316 4324 z M 5580 2280 C 5656 2241 5693 2205 5735 2129 C 5773 2059 5775 2050 5775 1970 C 5775 1894 5771 1877 5741 1810 C 5697 1714 5662 1677 5573 1633 C 5508 1601 5495 1598 5442 1603 C 5285 1617 5143 1738 5104 1889 C 5089 1948 5089 1959 5104 2018 C 5133 2136 5228 2243 5345 2290 C 5412 2317 5516 2313 5580 2280 z M 6168 2155 C 6224 2070 6273 2000 6277 2001 C 6281 2001 6330 2068 6384 2151 L 6483 2300 L 6555 2300 L 6628 2300 L 6631 2153 C 6633 2071 6633 1914 6631 1803 L 6628 1600 L 6554 1600 L 6480 1600 L 6480 1802 L 6480 2003 L 6459 1984 C 6447 1974 6406 1920 6367 1865 C 6261 1714 6273 1721 6231 1790 C 6211 1823 6170 1884 6140 1927 L 6085 2005 L 6080 1805 L 6075 1605 L 6003 1602 L 5930 1599 L 5930 1807 C 5930 1921 5927 2081 5924 2163 L 5918 2310 L 5993 2310 L 6068 2310 L 6168 2155 z M 7074 2275 C 7161 2271 7237 2263 7255 2256 C 7295 2239 7356 2168 7364 2128 C 7374 2078 7353 2023 7307 1978 C 7283 1955 7270 1935 7277 1933 C 7283 1931 7307 1916 7329 1900 C 7368 1871 7390 1826 7390 1775 C 7389 1739 7353 1673 7319 1648 C 7261 1605 7229 1600 7014 1600 L 6811 1600 L 6811 1945 L 6811 2291 L 6868 2286 C 6899 2283 6992 2278 7074 2275 z M 4882 2250 C 4932 2216 4970 2155 4970 2108 C 4970 2056 4939 1999 4899 1976 L 4867 1957 L 4896 1942 C 5017 1881 5037 1737 4936 1653 C 4877 1605 4842 1598 4618 1593 L 4410 1588 L 4410 1928 L 4410 2269 L 4483 2273 C 4522 2275 4621 2276 4701 2276 C 4839 2275 4849 2274 4882 2250 z" stroke-linecap="round" /></g>		<g transform="matrix(0.13 0 0 -0.13 367 390.47)"><path style="stroke: none; stroke-width: 1; stroke-dasharray: none; stroke-linecap: butt; stroke-dashoffset: 0; stroke-linejoin: miter; stroke-miterlimit: 4; fill: rgb(0,0,0); fill-rule: nonzero; opacity: 1;" vector-effect="non-scaling-stroke" transform=" translate(-8640, -2875)" d="M 8620 2875 C 8620 2867 8628 2864 8640 2867 C 8651 2870 8660 2874 8660 2875 C 8660 2876 8651 2880 8640 2883 C 8628 2886 8620 2883 8620 2875 z" stroke-linecap="round" /></g>		<g transform="matrix(0.13 0 0 -0.13 192.29 379.47)"><path style="stroke: none; stroke-width: 1; stroke-dasharray: none; stroke-linecap: butt; stroke-dashoffset: 0; stroke-linejoin: miter; stroke-miterlimit: 4; fill: rgb(0,0,0); fill-rule: nonzero; opacity: 1;" vector-effect="non-scaling-stroke" transform=" translate(-7329.64, -2957.5)" d="M 7320 2955 C 7327 2947 7336 2943 7341 2946 C 7354 2954 7342 2970 7323 2970 C 7310 2970 7310 2967 7320 2955 z" stroke-linecap="round" /></g>		<g transform="matrix(0.13 0 0 -0.13 151.4 440.47)"><path style="stroke: none; stroke-width: 1; stroke-dasharray: none; stroke-linecap: butt; stroke-dashoffset: 0; stroke-linejoin: miter; stroke-miterlimit: 4; fill: rgb(0,0,0); fill-rule: nonzero; opacity: 1;" vector-effect="non-scaling-stroke" transform=" translate(-7023, -2500)" d="M 7010 2500 C 7010 2495 7017 2490 7026 2490 C 7034 2490 7038 2495 7035 2500 C 7032 2506 7025 2510 7019 2510 C 7014 2510 7010 2506 7010 2500 z" stroke-linecap="round" /></g>		<g transform="matrix(0.13 0 0 -0.13 -190.93 314.33)"><path style="stroke: none; stroke-width: 1; stroke-dasharray: none; stroke-linecap: butt; stroke-dashoffset: 0; stroke-linejoin: miter; stroke-miterlimit: 4; fill: rgb(0,0,0); fill-rule: nonzero; opacity: 1;" vector-effect="non-scaling-stroke" transform=" translate(-4455.5, -3446.05)" d="M 4389 3449 L 4334 3170 L 4419 3170 C 4466 3170 4521 3173 4541 3176 L 4577 3182 L 4539 3334 C 4519 3418 4492 3538 4479 3601 C 4467 3664 4454 3718 4451 3722 C 4448 3726 4420 3603 4389 3449 z" stroke-linecap="round" /></g>		<g transform="matrix(0.13 0 0 -0.13 -154.13 438.7)"><path style="stroke: none; stroke-width: 1; stroke-dasharray: none; stroke-linecap: butt; stroke-dashoffset: 0; stroke-linejoin: miter; stroke-miterlimit: 4; fill: rgb(0,0,0); fill-rule: nonzero; opacity: 1;" vector-effect="non-scaling-stroke" transform=" translate(-4731.56, -2513.26)" d="M 4729 2514 L 4705 2488 L 4729 2492 C 4745 2494 4754 2503 4756 2518 C 4761 2546 4759 2546 4729 2514 z" stroke-linecap="round" /></g>		<g transform="matrix(0.13 0 0 -0.13 -226.21 445.19)"><path style="stroke: none; stroke-width: 1; stroke-dasharray: none; stroke-linecap: butt; stroke-dashoffset: 0; stroke-linejoin: miter; stroke-miterlimit: 4; fill: rgb(0,0,0); fill-rule: nonzero; opacity: 1;" vector-effect="non-scaling-stroke" transform=" translate(-4190.96, -2464.64)" d="M 4181 2467 C 4188 2452 4197 2440 4202 2440 C 4216 2440 4211 2456 4189 2476 C 4168 2495 4168 2495 4181 2467 z" stroke-linecap="round" /></g>		<g transform="matrix(0.13 0 0 -0.13 58.2 427.35)"><path style="stroke: none; stroke-width: 1; stroke-dasharray: none; stroke-linecap: butt; stroke-dashoffset: 0; stroke-linejoin: miter; stroke-miterlimit: 4; fill: rgb(0,0,0); fill-rule: nonzero; opacity: 1;" vector-effect="non-scaling-stroke" transform=" translate(-6324.03, -2598.42)" d="M 6293 2608 C 6295 2554 6297 2550 6324 2540 C 6340 2535 6354 2531 6356 2532 C 6357 2534 6343 2564 6325 2600 L 6292 2665 L 6293 2608 z" stroke-linecap="round" /></g>		<g transform="matrix(0.13 0 0 -0.13 -67.56 430.24)"><path style="stroke: none; stroke-width: 1; stroke-dasharray: none; stroke-linecap: butt; stroke-dashoffset: 0; stroke-linejoin: miter; stroke-miterlimit: 4; fill: rgb(0,0,0); fill-rule: nonzero; opacity: 1;" vector-effect="non-scaling-stroke" transform=" translate(-5380.8, -2576.72)" d="M 5377 2585 C 5367 2564 5361 2545 5364 2543 C 5372 2535 5402 2589 5398 2606 C 5396 2617 5389 2611 5377 2585 z" stroke-linecap="round" /></g>		<g transform="matrix(0.13 0 0 -0.13 -58.35 512.58)"><path style="stroke: none; stroke-width: 1; stroke-dasharray: none; stroke-linecap: butt; stroke-dashoffset: 0; stroke-linejoin: miter; stroke-miterlimit: 4; fill: rgb(0,0,0); fill-rule: nonzero; opacity: 1;" vector-effect="non-scaling-stroke" transform=" translate(-5449.86, -1959.16)" d="M 5386 2146 C 5227 2087 5215 1853 5368 1779 C 5490 1720 5640 1820 5640 1960 C 5640 2091 5505 2190 5386 2146 z" stroke-linecap="round" /></g>		<g transform="matrix(0.13 0 0 -0.13 159.54 497.34)"><path style="stroke: none; stroke-width: 1; stroke-dasharray: none; stroke-linecap: butt; stroke-dashoffset: 0; stroke-linejoin: miter; stroke-miterlimit: 4; fill: rgb(0,0,0); fill-rule: nonzero; opacity: 1;" vector-effect="non-scaling-stroke" transform=" translate(-7084.09, -2073.5)" d="M 6962 2073 L 6965 1997 L 7065 1999 C 7158 2000 7166 2002 7188 2026 C 7215 2056 7216 2091 7192 2113 C 7171 2132 7147 2137 7037 2144 L 6959 2150 L 6962 2073 z" stroke-linecap="round" /></g>		<g transform="matrix(0.13 0 0 -0.13 161.62 533.81)"><path style="stroke: none; stroke-width: 1; stroke-dasharray: none; stroke-linecap: butt; stroke-dashoffset: 0; stroke-linejoin: miter; stroke-miterlimit: 4; fill: rgb(0,0,0); fill-rule: nonzero; opacity: 1;" vector-effect="non-scaling-stroke" transform=" translate(-7099.63, -1800)" d="M 6960 1800 L 6960 1730 L 7075 1730 C 7185 1730 7192 1731 7215 1755 C 7248 1787 7247 1823 7214 1849 C 7191 1867 7173 1870 7074 1870 L 6960 1870 L 6960 1800 z" stroke-linecap="round" /></g>		<g transform="matrix(0.13 0 0 -0.13 -159.21 498.21)"><path style="stroke: none; stroke-width: 1; stroke-dasharray: none; stroke-linecap: butt; stroke-dashoffset: 0; stroke-linejoin: miter; stroke-miterlimit: 4; fill: rgb(0,0,0); fill-rule: nonzero; opacity: 1;" vector-effect="non-scaling-stroke" transform=" translate(-4693.4, -2067)" d="M 4570 2067 L 4570 1994 L 4663 1998 C 4762 2002 4793 2014 4812 2056 C 4826 2086 4808 2126 4776 2134 C 4765 2137 4713 2140 4663 2140 L 4570 2140 L 4570 2067 z" stroke-linecap="round" /></g>		<g transform="matrix(0.13 0 0 -0.13 -158.11 534.27)"><path style="stroke: none; stroke-width: 1; stroke-dasharray: none; stroke-linecap: butt; stroke-dashoffset: 0; stroke-linejoin: miter; stroke-miterlimit: 4; fill: rgb(0,0,0); fill-rule: nonzero; opacity: 1;" vector-effect="non-scaling-stroke" transform=" translate(-4701.7, -1796.5)" d="M 4568 1863 C 4567 1858 4566 1825 4566 1789 L 4565 1723 L 4675 1727 C 4758 1731 4791 1736 4810 1749 C 4843 1773 4848 1822 4821 1849 C 4802 1868 4788 1870 4685 1870 C 4622 1870 4569 1867 4568 1863 z" stroke-linecap="round" /></g>		<g transform="matrix(0.13 0 0 -0.13 1.27 -238.35)"><path style="stroke: none; stroke-width: 1; stroke-dasharray: none; stroke-linecap: butt; stroke-dashoffset: 0; stroke-linejoin: miter; stroke-miterlimit: 4; fill: rgb(0,0,0); fill-rule: nonzero; opacity: 1;" vector-effect="non-scaling-stroke" transform=" translate(-5897.05, -7591.14)" d="M 6840 9828 C 6840 9784 6815 9651 6805 9642 C 6799 9636 6760 9652 6627 9714 L 6548 9750 L 6576 9703 C 6646 9581 6660 9554 6660 9542 C 6660 9532 6630 9531 6518 9536 C 6229 9549 6069 9493 5876 9309 C 5783 9222 5717 9103 5706 9003 L 5699 8943 L 5592 8932 C 5484 8921 5314 8883 5263 8858 L 5235 8845 L 5232 8590 L 5230 8334 L 5167 8300 C 4943 8178 4725 7974 4580 7750 C 4243 7228 4255 6543 4611 6010 C 4692 5888 4865 5714 4996 5622 C 5116 5537 5315 5431 5425 5395 C 5883 5241 6341 5303 6747 5573 C 6925 5692 7040 5806 7179 6000 C 7316 6191 7401 6396 7441 6631 C 7459 6737 7461 6783 7457 6950 C 7449 7296 7387 7486 7177 7802 C 7051 7994 6849 8177 6638 8294 L 6570 8332 L 6568 8578 L 6565 8824 L 6532 8846 C 6493 8873 6311 8918 6183 8933 C 6106 8942 6090 8947 6090 8961 C 6090 8989 6175 9096 6232 9139 C 6308 9196 6362 9217 6476 9236 C 6531 9244 6594 9255 6618 9259 C 6641 9264 6662 9265 6664 9261 C 6667 9257 6644 9205 6615 9145 C 6585 9084 6561 9034 6560 9033 C 6558 9013 6750 9104 6800 9146 L 6830 9172 L 6839 9148 C 6882 9034 6938 8920 6950 8920 C 6953 8920 6967 8974 6979 9041 C 6999 9143 7005 9160 7019 9154 C 7028 9150 7064 9136 7100 9123 C 7136 9110 7191 9088 7223 9074 C 7255 9060 7284 9051 7287 9054 C 7290 9057 7270 9099 7243 9147 C 7177 9262 7158 9301 7163 9307 C 7166 9309 7197 9318 7232 9326 C 7327 9347 7429 9376 7435 9382 C 7439 9385 7395 9402 7338 9420 C 7209 9460 7160 9485 7160 9509 C 7160 9519 7187 9582 7220 9649 C 7253 9716 7280 9776 7280 9781 C 7280 9787 7250 9775 7213 9754 C 7175 9733 7123 9706 7095 9693 C 7068 9680 7037 9665 7027 9659 C 7002 9645 6997 9650 6951 9734 C 6909 9811 6865 9870 6849 9870 C 6844 9870 6840 9851 6840 9828 z M 6975 9504 C 6989 9495 7004 9471 7010 9448 C 7019 9415 7018 9404 7003 9377 C 6965 9313 6908 9305 6857 9356 C 6812 9401 6823 9474 6878 9504 C 6914 9524 6945 9524 6975 9504 z M 6515 9402 C 6537 9387 6556 9366 6558 9356 C 6562 9339 6557 9338 6517 9342 C 6465 9348 6336 9416 6346 9432 C 6359 9452 6471 9433 6515 9402 z M 6703 9409 C 6735 9392 6739 9386 6730 9374 C 6708 9348 6660 9360 6613 9403 C 6600 9414 6590 9428 6590 9433 C 6590 9446 6657 9432 6703 9409 z M 6263 9376 C 6307 9360 6342 9332 6334 9319 C 6331 9314 6313 9310 6294 9310 C 6253 9310 6140 9340 6140 9351 C 6140 9364 6183 9390 6205 9390 C 6216 9389 6242 9383 6263 9376 z M 6170 9270 C 6194 9246 6195 9236 6176 9221 C 6156 9205 5990 9228 5997 9246 C 6013 9287 6136 9304 6170 9270 z M 6041 9159 C 6050 9155 6062 9144 6069 9136 C 6088 9113 6058 9103 5947 9097 L 5849 9092 L 5863 9113 C 5871 9125 5892 9145 5911 9158 C 5938 9177 5952 9180 5985 9174 C 6007 9171 6032 9164 6041 9159 z M 5980 9021 C 5980 9000 5865 8930 5830 8930 C 5813 8930 5819 8966 5839 8984 C 5872 9014 5980 9042 5980 9021 z M 6025 8800 C 6064 8795 6135 8786 6184 8780 C 6275 8769 6386 8745 6409 8731 C 6425 8721 6435 8501 6423 8419 L 6415 8363 L 6370 8374 L 6325 8385 L 6329 8546 L 6332 8706 L 6230 8730 C 6140 8750 6110 8752 5996 8747 C 5851 8741 5570 8704 5556 8689 C 5550 8684 5538 8680 5527 8680 C 5517 8680 5512 8675 5515 8670 C 5519 8664 5526 8663 5532 8666 C 5539 8670 5540 8668 5536 8661 C 5532 8655 5525 8652 5520 8655 C 5514 8658 5509 8605 5508 8533 L 5505 8405 L 5448 8391 C 5416 8383 5389 8378 5386 8381 C 5384 8383 5380 8463 5378 8558 L 5375 8730 L 5425 8749 C 5468 8765 5587 8787 5715 8803 C 5777 8811 5958 8809 6025 8800 z M 6085 8292 C 6115 8283 6115 8283 6070 8277 C 6045 8273 5967 8268 5895 8265 C 5550 8249 5226 8102 4994 7858 C 4925 7785 4802 7613 4761 7531 C 4713 7438 4650 7260 4631 7165 C 4582 6922 4599 6643 4676 6430 C 4745 6236 4849 6072 4999 5921 C 5119 5798 5214 5731 5374 5654 C 5564 5563 5672 5538 5870 5538 C 6156 5537 6392 5615 6625 5788 C 6906 5996 7092 6298 7157 6650 C 7181 6781 7180 7092 7156 7204 C 7136 7295 7065 7490 7019 7582 C 6948 7722 6807 7908 6706 7991 C 6608 8073 6430 8185 6343 8220 C 6297 8238 6260 8255 6260 8257 C 6260 8260 6283 8260 6311 8256 C 6464 8236 6697 8095 6875 7916 C 6994 7796 7079 7679 7153 7532 C 7263 7316 7301 7155 7303 6901 C 7304 6718 7292 6639 7239 6478 C 7085 6005 6716 5650 6248 5525 C 5795 5404 5300 5542 4937 5890 C 4804 6017 4723 6127 4639 6295 C 4556 6462 4515 6608 4497 6803 C 4487 6914 4488 6951 4503 7070 C 4534 7314 4605 7504 4742 7710 C 4882 7920 5047 8064 5279 8181 C 5379 8232 5474 8261 5635 8291 C 5714 8305 5768 8308 5895 8305 C 5983 8303 6069 8297 6085 8292 z M 5555 7975 C 5586 7945 5588 7900 5560 7875 C 5548 7864 5519 7855 5486 7852 C 5437 7848 5431 7850 5415 7873 C 5401 7895 5400 7905 5410 7935 C 5432 8002 5508 8023 5555 7975 z M 5351 7793 C 5407 7768 5465 7710 5482 7661 C 5489 7641 5495 7591 5494 7550 C 5494 7411 5416 7299 5272 7228 C 5215 7200 5195 7195 5135 7196 C 5083 7196 5054 7202 5022 7219 C 4960 7251 4904 7304 4879 7356 C 4816 7487 4920 7708 5083 7790 C 5140 7819 5151 7821 5225 7818 C 5276 7815 5321 7806 5351 7793 z M 5531 7229 C 5568 7203 5570 7160 5535 7114 C 5492 7058 5446 7060 5415 7120 C 5394 7161 5396 7184 5426 7219 C 5457 7256 5489 7259 5531 7229 z M 4969 7114 C 5012 7078 5013 7021 4971 6979 C 4943 6951 4939 6950 4908 6963 C 4869 6979 4836 7030 4845 7060 C 4855 7092 4900 7140 4920 7140 C 4930 7140 4952 7128 4969 7114 z M 4897 6404 C 4922 6359 4919 6330 4888 6330 C 4845 6330 4799 6416 4827 6444 C 4844 6461 4876 6442 4897 6404 z" stroke-linecap="round" /></g>		<g transform="matrix(0.13 0 0 -0.13 2.71 -194.14)"><path style="stroke: none; stroke-width: 1; stroke-dasharray: none; stroke-linecap: butt; stroke-dashoffset: 0; stroke-linejoin: miter; stroke-miterlimit: 4; fill: rgb(0,0,0); fill-rule: nonzero; opacity: 1;" vector-effect="non-scaling-stroke" transform=" translate(-5907.82, -7259.59)" d="M 5840 9805 C 5815 9796 5695 9765 5573 9735 C 5224 9650 4704 9499 4360 9384 C 4074 9288 3934 9236 3560 9090 C 3491 9063 3375 9019 3303 8993 C 3188 8952 3170 8942 3170 8923 C 3170 8907 3183 8895 3223 8876 C 3251 8862 3288 8840 3304 8828 C 3336 8801 3331 8831 3371 8385 C 3403 8020 3507 7542 3626 7210 C 3741 6890 3934 6472 4060 6275 C 4091 6226 4145 6140 4179 6086 C 4331 5846 4588 5559 4850 5339 C 4942 5262 5153 5110 5281 5029 C 5487 4899 5752 4748 5818 4724 C 5883 4699 5885 4699 5929 4716 C 6076 4771 6408 4961 6707 5162 C 6933 5313 7228 5586 7420 5820 C 7535 5962 7731 6256 7840 6453 C 8201 7104 8406 7852 8446 8665 C 8450 8752 8457 8803 8467 8818 C 8483 8844 8604 8905 8619 8895 C 8626 8891 8628 8818 8624 8682 C 8621 8568 8620 8477 8623 8480 C 8626 8483 8631 8577 8635 8690 C 8638 8803 8643 8905 8645 8916 C 8649 8935 8636 8944 8546 8984 C 8424 9038 8139 9156 7911 9246 L 7748 9310 L 7666 9290 C 7622 9279 7535 9255 7473 9237 L 7362 9204 L 7397 9144 C 7417 9112 7459 9045 7491 8995 C 7548 8907 7587 8824 7578 8814 C 7575 8811 7548 8819 7519 8831 C 7354 8896 7099 8978 7096 8967 C 7094 8961 7085 8883 7076 8795 C 7063 8669 7055 8631 7041 8617 C 7023 8599 7022 8599 6998 8632 C 6985 8650 6942 8708 6902 8761 C 6862 8814 6818 8883 6804 8914 C 6790 8945 6775 8970 6770 8970 C 6755 8970 6698 8897 6708 8891 C 6714 8888 6720 8785 6723 8647 C 6725 8516 6732 8405 6736 8400 C 6741 8396 6777 8376 6815 8355 C 6901 8310 6927 8290 7060 8173 C 7178 8069 7184 8062 7302 7890 C 7503 7596 7597 7321 7614 6977 C 7625 6770 7565 6432 7486 6250 C 7375 5993 7124 5687 6865 5492 C 6545 5251 6087 5129 5710 5184 C 5360 5235 5068 5370 4785 5612 C 4489 5865 4316 6152 4223 6540 C 4203 6627 4198 6680 4193 6845 C 4187 7077 4197 7197 4238 7360 C 4273 7498 4309 7586 4397 7745 C 4474 7884 4542 7980 4637 8081 C 4741 8192 4928 8347 4996 8380 L 5057 8410 L 5063 8657 C 5066 8794 5073 8918 5078 8935 C 5085 8962 5094 8967 5166 8987 C 5369 9046 5430 9061 5492 9066 L 5559 9073 L 5586 9157 C 5603 9212 5628 9262 5656 9300 C 5679 9332 5705 9371 5714 9387 C 5722 9403 5753 9437 5782 9461 C 5937 9593 6116 9674 6280 9687 C 6376 9694 6397 9705 6336 9714 C 6310 9718 6216 9741 6128 9765 C 5931 9819 5898 9824 5840 9805 z M 4239 8564 C 4254 8545 4260 8523 4260 8489 L 4260 8440 L 4298 8440 C 4349 8440 4372 8415 4368 8363 L 4365 8325 L 4308 8322 L 4250 8319 L 4250 8265 L 4250 8210 L 4211 8210 C 4166 8210 4160 8219 4160 8291 L 4160 8340 L 4114 8340 C 4047 8340 4030 8353 4030 8402 L 4030 8442 L 4094 8438 C 4165 8434 4170 8437 4170 8507 C 4170 8550 4186 8590 4204 8590 C 4212 8590 4228 8578 4239 8564 z M 7606 8529 C 7616 8444 7618 8440 7653 8440 C 7670 8440 7702 8437 7723 8434 C 7752 8429 7760 8423 7760 8406 C 7759 8369 7736 8350 7692 8350 C 7624 8350 7620 8346 7620 8270 C 7620 8202 7620 8202 7589 8195 C 7572 8191 7556 8191 7552 8195 C 7548 8198 7538 8229 7530 8263 L 7515 8325 L 7465 8328 C 7438 8330 7412 8337 7408 8343 C 7383 8383 7423 8440 7477 8440 C 7504 8440 7511 8444 7515 8465 C 7518 8479 7522 8502 7525 8516 C 7532 8548 7580 8594 7593 8581 C 7598 8576 7604 8553 7606 8529 z M 7904 8136 C 7896 8103 7858 8073 7754 8021 C 7650 7969 7440 7908 7440 7930 C 7440 7959 7670 8089 7845 8158 C 7901 8180 7914 8175 7904 8136 z M 4104 8086 C 4244 8017 4310 7973 4310 7950 C 4310 7904 4034 8012 3950 8090 C 3918 8120 3909 8160 3936 8160 C 3945 8160 4020 8127 4104 8086 z" stroke-linecap="round" /></g>		<g transform="matrix(0.13 0 0 -0.13 66.35 -435.11)"><path style="stroke: none; stroke-width: 1; stroke-dasharray: none; stroke-linecap: butt; stroke-dashoffset: 0; stroke-linejoin: miter; stroke-miterlimit: 4; fill: rgb(0,0,0); fill-rule: nonzero; opacity: 1;" vector-effect="non-scaling-stroke" transform=" translate(-6385.15, -9066.84)" d="M 6383 9077 C 6370 9072 6360 9063 6360 9058 C 6360 9043 6400 9049 6407 9065 C 6415 9087 6409 9089 6383 9077 z" stroke-linecap="round" /></g></g></g></svg>