<?xml version="1.0" encoding="UTF-8" standalone="no" ?>
<!DOCTYPE svg PUBLIC "-//W3C//DTD SVG 1.1//EN" "http://www.w3.org/Graphics/SVG/1.1/DTD/svg11.dtd">
<svg xmlns="http://www.w3.org/2000/svg" xmlns:xlink="http://www.w3.org/1999/xlink" version="1.1" width="13" height="13" viewBox="0 0 13 13" xml:space="preserve">
<desc>Created with Fabric.js 5.2.4</desc>
<defs>
</defs>
<rect x="0" y="0" width="100%" height="100%" fill="transparent"></rect>
<g transform="matrix(1 0 0 1 6.5 6.5)" id="0f1ae404-2e91-4d0b-be37-0950965ae32a"  >
<rect style="stroke: none; stroke-width: 1; stroke-dasharray: none; stroke-linecap: butt; stroke-dashoffset: 0; stroke-linejoin: miter; stroke-miterlimit: 4; fill: rgb(255,255,255); fill-rule: nonzero; opacity: 1; visibility: hidden;" vector-effect="non-scaling-stroke"  x="-6.5" y="-6.5" rx="0" ry="0" width="13" height="13" />
</g>
<g transform="matrix(Infinity NaN NaN Infinity 0 0)" id="2b5665a4-882f-4b98-9278-ffab8ed0f80d"  >
</g>
<g transform="matrix(0.18 0 0 0.18 6.5 6.5)" id="c244e828-ae39-4e97-b8c8-a9a01852c605"  >
<circle style="stroke: rgb(0,0,0); stroke-width: 0; stroke-dasharray: none; stroke-linecap: butt; stroke-dashoffset: 0; stroke-linejoin: miter; stroke-miterlimit: 4; fill: rgb(255,255,255); fill-rule: nonzero; opacity: 1;" vector-effect="non-scaling-stroke"  cx="0" cy="0" r="35" />
</g>
<g transform="matrix(0.01 0 0 0.01 6.5 6.5)"  >
<g style="" vector-effect="non-scaling-stroke"   >
		<g transform="matrix(0.13 0 0 -0.13 -9.43 -9.38)"  >
<path style="stroke: none; stroke-width: 1; stroke-dasharray: none; stroke-linecap: butt; stroke-dashoffset: 0; stroke-linejoin: miter; stroke-miterlimit: 4; fill: rgb(0,0,0); fill-rule: nonzero; opacity: 1;" vector-effect="non-scaling-stroke"  transform=" translate(-4987.5, -3791.19)" d="M 4915 6598 C 3626 6257 3193 6115 2393 5768 L 2160 5668 L 2160 5573 C 2160 5341 2206 4830 2250 4574 C 2385 3791 2722 3005 3195 2371 C 3346 2168 3520 1985 3750 1786 C 3995 1573 4246 1383 4413 1281 C 4450 1258 4511 1215 4547 1185 C 4587 1152 4672 1101 4764 1055 L 4915 978 L 4996 984 C 5041 987 5100 998 5127 1008 C 5187 1031 5333 1124 5392 1178 C 5416 1199 5469 1238 5510 1265 C 5551 1291 5608 1328 5635 1347 C 5663 1366 5728 1411 5781 1446 C 5974 1575 6327 1875 6505 2061 C 7147 2731 7621 3743 7760 4736 C 7788 4938 7809 5235 7812 5470 L 7815 5675 L 7635 5757 C 7241 5937 6927 6064 6637 6161 C 6522 6200 6422 6229 6413 6226 C 6397 6219 6305 6032 6314 6023 C 6317 6020 6326 6032 6334 6051 C 6342 6070 6351 6088 6355 6092 C 6373 6109 7141 5815 7560 5630 L 7665 5584 L 7663 5390 C 7660 5111 7639 4885 7589 4615 C 7567 4497 7546 4435 7531 4444 C 7526 4448 7519 4446 7515 4440 C 7511 4434 7503 4436 7493 4446 C 7472 4466 7469 4461 7435 4340 C 7363 4090 7207 3688 7071 3405 C 6950 3152 6749 2820 6718 2820 C 6708 2820 6681 2811 6659 2799 C 6615 2777 6590 2734 6590 2680 C 6590 2663 6585 2639 6578 2627 C 6516 2509 6180 2162 5960 1987 C 5710 1788 5463 1630 5192 1496 C 4961 1382 4985 1384 4838 1465 C 4496 1654 4225 1827 4043 1972 C 3817 2153 3566 2397 3457 2542 C 3389 2634 3380 2653 3391 2700 C 3402 2748 3380 2777 3302 2815 C 3246 2842 3235 2853 3182 2935 C 2961 3272 2769 3656 2624 4049 C 2595 4128 2566 4198 2560 4204 C 2548 4216 2574 4122 2600 4062 C 2611 4039 2617 4013 2614 4005 C 2610 3997 2613 3990 2619 3990 C 2625 3990 2630 3981 2630 3969 C 2630 3957 2626 3952 2619 3955 C 2613 3959 2606 3953 2603 3941 C 2600 3929 2593 3920 2588 3920 C 2583 3920 2582 3910 2585 3898 C 2590 3882 2589 3878 2582 3885 C 2544 3922 2408 4497 2366 4795 C 2342 4967 2320 5219 2313 5405 L 2307 5575 L 2334 5588 C 2437 5635 2902 5822 3085 5890 C 3577 6074 3917 6178 4751 6399 L 4978 6459 L 5076 6433 C 5131 6420 5261 6389 5365 6365 C 5470 6341 5582 6312 5614 6301 C 5647 6289 5677 6280 5682 6280 C 5692 6280 5692 6325 5684 6398 C 5678 6443 5674 6450 5656 6450 C 5644 6450 5558 6471 5465 6496 C 5271 6548 5065 6596 5000 6603 C 4975 6606 4937 6604 4915 6598 z M 2640 3926 C 2640 3924 2633 3919 2624 3916 C 2616 3913 2612 3914 2615 3920 C 2621 3930 2640 3934 2640 3926 z" stroke-linecap="round" />
</g>
		<g transform="matrix(0.13 0 0 -0.13 -4.35 -70.46)"  >
<path style="stroke: none; stroke-width: 1; stroke-dasharray: none; stroke-linecap: butt; stroke-dashoffset: 0; stroke-linejoin: miter; stroke-miterlimit: 4; fill: rgb(0,0,0); fill-rule: nonzero; opacity: 1;" vector-effect="non-scaling-stroke"  transform=" translate(-4990.35, -4267.92)" d="M 5841 6251 C 5823 6121 5825 6122 5700 6179 C 5642 6206 5594 6226 5592 6225 C 5590 6223 5609 6186 5634 6141 C 5659 6097 5680 6057 5680 6052 C 5680 6047 5600 6040 5503 6038 C 5343 6034 5317 6030 5246 6006 C 5034 5934 4852 5745 4818 5563 L 4807 5501 L 4761 5495 C 4627 5477 4518 5456 4460 5437 L 4395 5415 L 4389 5345 C 4385 5307 4382 5201 4381 5109 L 4380 4944 L 4305 4901 C 4190 4836 4081 4749 3973 4636 C 3691 4343 3558 3997 3573 3595 C 3581 3379 3621 3212 3710 3023 C 3869 2683 4204 2392 4580 2266 C 4847 2177 5161 2176 5425 2265 C 5532 2301 5702 2389 5805 2462 C 6042 2631 6260 2927 6344 3195 C 6385 3326 6401 3417 6407 3555 C 6418 3819 6380 4041 6291 4222 C 6152 4511 5926 4758 5668 4906 L 5600 4944 L 5600 5166 L 5600 5388 L 5568 5408 C 5528 5432 5411 5463 5275 5485 C 5220 5494 5174 5503 5171 5505 C 5159 5517 5187 5565 5240 5623 C 5322 5713 5387 5744 5549 5770 C 5617 5782 5676 5790 5681 5788 C 5687 5786 5668 5739 5641 5682 C 5611 5621 5596 5580 5603 5580 C 5623 5580 5761 5649 5798 5676 C 5829 5700 5850 5701 5850 5678 C 5850 5672 5871 5624 5896 5571 C 5928 5503 5944 5479 5949 5490 C 5953 5498 5965 5544 5975 5593 C 5985 5641 5996 5683 6001 5686 C 6006 5688 6062 5670 6126 5645 C 6190 5620 6245 5602 6248 5604 C 6250 5607 6227 5656 6196 5714 C 6165 5772 6140 5822 6140 5824 C 6140 5827 6159 5834 6183 5840 C 6339 5881 6380 5893 6380 5899 C 6380 5903 6348 5917 6308 5929 C 6203 5963 6150 5987 6144 6005 C 6140 6014 6161 6071 6190 6136 C 6219 6199 6241 6253 6238 6256 C 6234 6259 6184 6236 6126 6205 C 6068 6174 6013 6150 6004 6152 C 5995 6154 5962 6195 5931 6244 C 5900 6293 5870 6335 5864 6337 C 5857 6339 5848 6307 5841 6251 z M 5979 5996 C 6039 5932 5978 5824 5897 5852 C 5862 5865 5840 5896 5840 5935 C 5840 6008 5931 6048 5979 5996 z M 5533 5925 C 5570 5908 5598 5874 5585 5862 C 5568 5844 5400 5916 5400 5942 C 5400 5958 5488 5947 5533 5925 z M 5715 5925 C 5755 5909 5758 5887 5721 5882 C 5696 5878 5620 5923 5620 5941 C 5620 5955 5663 5948 5715 5925 z M 5333 5887 C 5377 5868 5396 5845 5374 5836 C 5355 5829 5256 5846 5226 5862 C 5207 5872 5207 5873 5225 5886 C 5249 5904 5292 5904 5333 5887 z M 5231 5800 C 5241 5794 5250 5780 5250 5770 C 5250 5752 5243 5750 5193 5751 C 5094 5753 5061 5772 5111 5797 C 5140 5812 5204 5814 5231 5800 z M 5131 5684 C 5144 5672 5147 5663 5140 5656 C 5129 5645 4950 5631 4950 5641 C 4950 5645 4966 5662 4987 5680 C 5019 5708 5028 5712 5067 5707 C 5091 5705 5120 5694 5131 5684 z M 5058 5568 C 5052 5549 4961 5490 4938 5490 C 4889 5490 4948 5555 5011 5570 C 5060 5581 5062 5581 5058 5568 z M 5210 5354 C 5345 5337 5437 5317 5453 5301 C 5465 5289 5471 4988 5459 4976 C 5456 4973 5437 4975 5417 4981 L 5380 4991 L 5380 5139 L 5380 5286 L 5289 5305 C 5183 5326 5009 5322 4820 5294 C 4718 5279 4613 5253 4648 5251 C 4656 5250 4658 5245 4653 5238 C 4649 5231 4641 5176 4635 5115 L 4625 5005 L 4577 4996 C 4551 4992 4528 4989 4526 4991 C 4524 4993 4520 5064 4518 5149 L 4513 5302 L 4544 5315 C 4583 5332 4710 5357 4810 5369 C 4899 5380 5052 5374 5210 5354 z M 5083 4914 C 5126 4910 5160 4904 5160 4900 C 5160 4896 5109 4889 5048 4885 C 4691 4864 4443 4767 4217 4560 C 4143 4493 4011 4318 3961 4220 C 3912 4126 3847 3939 3829 3840 C 3808 3725 3812 3477 3838 3360 C 3891 3114 4005 2914 4201 2724 C 4306 2622 4383 2569 4515 2506 C 4681 2427 4793 2400 4960 2400 C 5284 2400 5567 2521 5800 2759 C 5895 2856 5968 2962 6030 3093 C 6126 3295 6156 3456 6147 3729 C 6143 3867 6138 3909 6117 3980 C 6042 4230 5931 4425 5770 4588 C 5695 4663 5525 4779 5413 4831 C 5367 4853 5330 4872 5330 4874 C 5330 4883 5407 4866 5468 4844 C 5664 4771 5907 4568 6044 4362 C 6150 4203 6222 4032 6251 3870 C 6272 3754 6269 3483 6246 3385 C 6188 3134 6062 2903 5886 2726 C 5657 2497 5371 2368 5060 2354 C 4707 2338 4372 2473 4100 2740 C 3909 2927 3785 3156 3733 3418 C 3710 3536 3710 3764 3733 3882 C 3853 4480 4345 4911 4916 4919 C 4966 4919 5041 4917 5083 4914 z M 4675 4615 C 4703 4588 4707 4549 4685 4530 C 4676 4523 4651 4514 4627 4509 C 4546 4494 4514 4547 4566 4609 C 4599 4648 4640 4650 4675 4615 z M 4467 4458 C 4518 4445 4581 4393 4604 4346 C 4614 4324 4620 4286 4620 4238 C 4620 4105 4550 4002 4416 3939 C 4346 3906 4263 3900 4205 3924 C 4163 3942 4084 4014 4063 4054 C 4039 4099 4050 4211 4084 4278 C 4132 4373 4221 4451 4303 4471 C 4339 4479 4404 4474 4467 4458 z M 4663 3933 C 4688 3910 4684 3866 4654 3831 C 4622 3793 4589 3791 4561 3826 C 4532 3862 4535 3898 4567 3932 C 4597 3963 4628 3963 4663 3933 z M 4139 3834 C 4162 3815 4170 3800 4170 3775 C 4170 3736 4137 3690 4109 3690 C 4082 3690 4030 3743 4030 3769 C 4030 3789 4085 3860 4100 3860 C 4105 3860 4122 3848 4139 3834 z M 4069 3201 C 4094 3166 4097 3120 4075 3120 C 4051 3120 4010 3166 4010 3193 C 4010 3239 4039 3243 4069 3201 z" stroke-linecap="round" />
</g>
		<g transform="matrix(0.13 0 0 -0.13 -6.77 -29.98)"  >
<path style="stroke: none; stroke-width: 1; stroke-dasharray: none; stroke-linecap: butt; stroke-dashoffset: 0; stroke-linejoin: miter; stroke-miterlimit: 4; fill: rgb(0,0,0); fill-rule: nonzero; opacity: 1;" vector-effect="non-scaling-stroke"  transform=" translate(-4998.85, -3958)" d="M 4840 6250 C 4782 6234 4632 6195 4505 6161 C 4045 6041 3580 5896 3205 5755 C 2835 5616 2566 5513 2537 5499 C 2497 5481 2507 5461 2575 5419 C 2608 5399 2640 5372 2647 5359 C 2653 5346 2668 5232 2679 5105 C 2704 4843 2719 4730 2756 4545 C 2834 4147 2938 3832 3125 3430 C 3275 3107 3448 2832 3651 2595 C 3767 2458 4002 2235 4130 2139 C 4427 1916 4898 1637 4979 1637 C 5069 1637 5649 1979 5895 2177 C 6113 2353 6334 2584 6479 2789 C 6981 3497 7235 4227 7304 5168 C 7316 5328 7322 5365 7337 5382 C 7356 5403 7408 5432 7448 5444 L 7470 5451 L 7472 5288 L 7473 5125 L 7481 5300 C 7486 5412 7485 5478 7479 5486 C 7459 5511 6706 5820 6666 5820 C 6647 5820 6330 5734 6324 5727 C 6323 5726 6353 5676 6392 5615 C 6462 5504 6520 5398 6520 5381 C 6520 5376 6429 5403 6318 5441 C 6207 5479 6108 5510 6099 5510 C 6080 5510 6078 5500 6059 5336 C 6048 5234 6038 5196 6021 5186 C 6010 5179 5880 5352 5824 5448 C 5804 5482 5782 5509 5777 5507 C 5771 5505 5758 5493 5749 5479 C 5732 5457 5732 5438 5740 5231 C 5745 5108 5752 5004 5757 4999 C 5761 4995 5804 4967 5852 4938 C 5989 4855 6137 4718 6226 4592 C 6412 4329 6505 4103 6541 3825 C 6565 3641 6538 3375 6475 3154 C 6393 2872 6103 2505 5807 2307 C 5588 2161 5318 2075 5044 2063 C 4629 2046 4213 2221 3876 2555 C 3680 2750 3554 2973 3478 3259 C 3449 3368 3447 3389 3442 3596 C 3435 3919 3467 4086 3576 4306 C 3714 4584 3897 4797 4130 4951 C 4171 4978 4210 5004 4216 5009 C 4223 5015 4229 5101 4233 5250 C 4238 5458 4240 5485 4257 5501 C 4277 5521 4498 5584 4605 5600 C 4644 5606 4678 5614 4681 5618 C 4685 5622 4697 5654 4709 5690 C 4732 5760 4800 5871 4859 5933 C 4962 6043 5145 6137 5299 6161 C 5341 6167 5386 6174 5400 6177 C 5436 6184 5058 6279 4995 6279 C 4968 6279 4898 6266 4840 6250 z M 3479 5144 C 3493 5126 3500 5103 3500 5074 C 3500 5031 3501 5030 3532 5030 C 3574 5030 3600 5005 3600 4963 C 3600 4935 3597 4930 3576 4930 C 3563 4930 3538 4927 3521 4924 C 3491 4918 3490 4915 3490 4869 C 3490 4826 3487 4820 3469 4820 C 3425 4820 3410 4838 3410 4889 L 3410 4937 L 3359 4942 C 3304 4948 3290 4960 3290 5003 C 3290 5029 3292 5030 3343 5030 C 3406 5030 3420 5041 3420 5093 C 3420 5133 3434 5170 3450 5170 C 3455 5170 3468 5158 3479 5144 z M 6545 5108 C 6554 5041 6563 5030 6610 5030 C 6663 5030 6680 5022 6680 4995 C 6680 4965 6667 4957 6610 4950 L 6565 4945 L 6562 4890 C 6558 4829 6548 4810 6515 4810 C 6496 4810 6490 4819 6476 4870 C 6460 4926 6457 4930 6429 4930 C 6387 4930 6360 4947 6360 4972 C 6360 5000 6388 5030 6414 5030 C 6446 5030 6457 5041 6468 5084 C 6480 5126 6506 5160 6526 5160 C 6533 5160 6541 5139 6545 5108 z M 6815 4780 C 6822 4768 6803 4730 6781 4712 C 6717 4660 6469 4564 6419 4572 C 6397 4575 6400 4579 6445 4612 C 6514 4663 6759 4785 6802 4789 C 6806 4790 6812 4786 6815 4780 z M 3344 4716 C 3510 4636 3581 4580 3517 4580 C 3439 4580 3228 4687 3200 4741 C 3190 4759 3194 4780 3207 4780 C 3209 4780 3271 4751 3344 4716 z" stroke-linecap="round" />
</g>
		<g transform="matrix(0.13 0 0 -0.13 60.93 -247.22)"  >
<path style="stroke: none; stroke-width: 1; stroke-dasharray: none; stroke-linecap: butt; stroke-dashoffset: 0; stroke-linejoin: miter; stroke-miterlimit: 4; fill: rgb(0,0,0); fill-rule: nonzero; opacity: 1;" vector-effect="non-scaling-stroke"  transform=" translate(-5445, -5645)" d="M 5430 5645 C 5420 5633 5420 5630 5433 5630 C 5441 5630 5453 5637 5460 5645 C 5470 5657 5470 5660 5457 5660 C 5449 5660 5437 5653 5430 5645 z" stroke-linecap="round" />
</g>
</g>
</g>
</svg>